<svg version="1" xmlns="http://www.w3.org/2000/svg" width="1365.333" height="1365.333" viewBox="0 0 1024.000000 1024.000000"><path d="M307.6 129.2c-15.6 1.7-29.1 7.8-39.8 17.7-12.4 11.4-19.6 26.5-21.7 45.3-.8 6.7-1.1 104.9-1.1 319.8s.3 313.1 1.1 319.8c2.1 18.8 9.3 33.9 21.7 45.3 11.1 10.3 24.1 15.9 41.4 17.8 13.5 1.5 391.1 1.5 404.6 0 18.6-2 31.3-7.8 43.3-19.8 12-12 17.8-24.7 19.8-43.3 1.5-13.6 1.5-626 0-639.6-2-18.6-7.8-31.3-19.8-43.3-12-12-24.7-17.8-43.3-19.8-12.1-1.4-394.4-1.3-406.2.1zm61.9 289.9c15 5.6 26.1 16.3 32.2 31.2 3.8 9.2 4.4 23.8 1.3 33.9-7 23.1-27.1 38.2-51 38.2s-44-15.1-51-38.2c-3.1-10.1-2.5-24.7 1.3-33.9 6.1-15 17.5-26 32.2-31.1 8.2-2.9 9.7-3.1 20-2.7 6.2.2 10.9 1 15 2.6zm160 0c15 5.6 26.1 16.3 32.2 31.2 3.8 9.2 4.4 23.8 1.3 33.9-7 23.1-27.1 38.2-51 38.2s-44-15.1-51-38.2c-3.1-10.1-2.5-24.7 1.3-33.9 6.1-15 17.5-26 32.2-31.1 8.2-2.9 9.7-3.1 20-2.7 6.2.2 10.9 1 15 2.6zm159.7.2c31.2 11.3 44.8 45.9 29.5 75.2-4.1 7.9-14.6 18.2-22.2 21.9-8.6 4.2-14.8 5.6-24.5 5.6-15.2 0-26.6-4.7-37-15-31-30.8-14.6-81.9 29-90.4 5.6-1.1 18.7.3 25.2 2.7zM369.5 579.1c15 5.6 26.1 16.3 32.2 31.2 3.8 9.2 4.4 23.8 1.3 33.9-7 23.1-27.1 38.2-51 38.2s-44-15.1-51-38.2c-3.1-10.1-2.5-24.7 1.3-33.9 6.1-15 17.5-26 32.2-31.1 8.2-2.9 9.7-3.1 20-2.7 6.2.2 10.9 1 15 2.6zm160 0c15 5.6 26.1 16.3 32.2 31.2 3.8 9.2 4.4 23.8 1.3 33.9-7 23.1-27.1 38.2-51 38.2s-44-15.1-51-38.2c-3.1-10.1-2.5-24.7 1.3-33.9 6.1-15 17.5-26 32.2-31.1 8.2-2.9 9.7-3.1 20-2.7 6.2.2 10.9 1 15 2.6zm159.7.2c31.2 11.3 44.8 45.9 29.5 75.2-4.1 7.9-14.6 18.2-22.2 21.9-8.6 4.2-14.8 5.6-24.5 5.6-15.2 0-26.6-4.7-37-15-31-30.8-14.6-81.9 29-90.4 5.6-1.1 18.7.3 25.2 2.7zm-163.9 159c14.6 4.3 28.4 15.2 34.1 26.8 10.1 20.9 6.4 44.8-9.4 60.9-6.8 7-14.5 11.4-24.6 14.2-7.9 2.3-8.1 2.3-93.4 2.3-85.3 0-85.5 0-93.4-2.3-18.9-5.3-32.6-18.6-38-37.1-2-6.8-2.1-19.8-.1-27 4.5-17 18.4-31.4 35.5-37 8.1-2.6 19.2-2.9 99.5-2.7 75.9.1 84.6.3 89.8 1.9zm163.9 1c31.2 11.3 44.8 45.9 29.5 75.2-4.1 7.9-14.6 18.2-22.2 21.9-8.6 4.2-14.8 5.6-24.5 5.6-15.2 0-26.6-4.7-37-15-31-30.8-14.6-81.9 29-90.4 5.6-1.1 18.7.3 25.2 2.7z"/></svg>